<mxfile host="Electron" agent="Mozilla/5.0 (X11; Linux x86_64) AppleWebKit/537.36 (KHTML, like Gecko) draw.io/27.0.9 Chrome/134.0.6998.205 Electron/35.5.1 Safari/537.36" version="27.0.9">
  <diagram id="7SFeTu6AjlBtYAXON-md" name="Page-1">
    <mxGraphModel dx="2715" dy="1710" grid="1" gridSize="10" guides="1" tooltips="1" connect="1" arrows="1" fold="1" page="1" pageScale="1" pageWidth="827" pageHeight="1169" math="0" shadow="0">
      <root>
        <mxCell id="0" />
        <mxCell id="1" parent="0" />
        <mxCell id="25IxbGbye8QSh7L906S8-20" style="edgeStyle=orthogonalEdgeStyle;rounded=0;orthogonalLoop=1;jettySize=auto;html=1;exitX=0.5;exitY=1;exitDx=0;exitDy=0;entryX=0.5;entryY=0;entryDx=0;entryDy=0;labelBackgroundColor=none;" parent="1" source="2" target="25IxbGbye8QSh7L906S8-25" edge="1">
          <mxGeometry relative="1" as="geometry">
            <mxPoint x="110.00000000000011" y="60" as="targetPoint" />
          </mxGeometry>
        </mxCell>
        <mxCell id="2" value="Начало" style="rounded=1;whiteSpace=wrap;html=1;arcSize=50;container=0;strokeWidth=2;fontFamily=JetBrainsMono Nerd Font;fontSize=10;labelBackgroundColor=none;" parent="1" vertex="1">
          <mxGeometry x="10" y="10" width="200" height="30" as="geometry" />
        </mxCell>
        <mxCell id="3" value="&lt;div&gt;&lt;span style=&quot;&quot;&gt;Конец&lt;/span&gt;&lt;/div&gt;" style="rounded=1;whiteSpace=wrap;html=1;arcSize=50;container=0;strokeWidth=2;fontFamily=JetBrainsMono Nerd Font;fontSize=10;glass=0;shadow=0;labelBackgroundColor=none;" parent="1" vertex="1">
          <mxGeometry x="840" y="990.33" width="200" height="30" as="geometry" />
        </mxCell>
        <mxCell id="25IxbGbye8QSh7L906S8-29" style="edgeStyle=orthogonalEdgeStyle;rounded=0;orthogonalLoop=1;jettySize=auto;html=1;exitX=0.5;exitY=1;exitDx=0;exitDy=0;entryX=0.5;entryY=0;entryDx=0;entryDy=0;labelBackgroundColor=none;" parent="1" source="25IxbGbye8QSh7L906S8-25" target="25IxbGbye8QSh7L906S8-34" edge="1">
          <mxGeometry relative="1" as="geometry">
            <mxPoint x="110.00000000000011" y="110" as="targetPoint" />
          </mxGeometry>
        </mxCell>
        <mxCell id="25IxbGbye8QSh7L906S8-25" value="Ввод line" style="shape=parallelogram;perimeter=parallelogramPerimeter;whiteSpace=wrap;html=1;fixedSize=1;size=30;container=0;strokeWidth=2;fontFamily=JetBrainsMono Nerd Font;fontSize=10;labelBackgroundColor=none;" parent="1" vertex="1">
          <mxGeometry x="10" y="60" width="200" height="30" as="geometry" />
        </mxCell>
        <mxCell id="25IxbGbye8QSh7L906S8-26" value="Ввод 1 строки &lt;br&gt;файла input.txt" style="strokeWidth=2;html=1;shape=mxgraph.flowchart.annotation_1;align=left;pointerEvents=1;fontFamily=JetBrainsMono Nerd Font;fontSize=10;labelBackgroundColor=none;" parent="1" vertex="1">
          <mxGeometry x="230.0000000000001" y="60" width="10" height="30" as="geometry" />
        </mxCell>
        <mxCell id="25IxbGbye8QSh7L906S8-27" style="edgeStyle=orthogonalEdgeStyle;rounded=0;orthogonalLoop=1;jettySize=auto;html=1;exitX=1;exitY=0.5;exitDx=0;exitDy=0;entryX=0;entryY=0.5;entryDx=0;entryDy=0;entryPerimeter=0;endArrow=none;endFill=0;dashed=1;fontFamily=JetBrainsMono Nerd Font;labelBackgroundColor=none;" parent="1" source="25IxbGbye8QSh7L906S8-25" target="25IxbGbye8QSh7L906S8-26" edge="1">
          <mxGeometry relative="1" as="geometry">
            <mxPoint x="240.0000000000001" y="85" as="sourcePoint" />
          </mxGeometry>
        </mxCell>
        <mxCell id="25IxbGbye8QSh7L906S8-38" style="edgeStyle=orthogonalEdgeStyle;rounded=0;orthogonalLoop=1;jettySize=auto;html=1;exitX=0.5;exitY=1;exitDx=0;exitDy=0;entryX=0.5;entryY=0;entryDx=0;entryDy=0;labelBackgroundColor=none;" parent="1" source="25IxbGbye8QSh7L906S8-34" target="25IxbGbye8QSh7L906S8-35" edge="1">
          <mxGeometry relative="1" as="geometry" />
        </mxCell>
        <mxCell id="25IxbGbye8QSh7L906S8-34" value="num_edges = 0" style="rounded=0;whiteSpace=wrap;html=1;strokeWidth=2;fontFamily=JetBrainsMono Nerd Font;fontSize=10;labelBackgroundColor=none;" parent="1" vertex="1">
          <mxGeometry x="10.000000000000114" y="110" width="200" height="30" as="geometry" />
        </mxCell>
        <mxCell id="25IxbGbye8QSh7L906S8-41" style="edgeStyle=orthogonalEdgeStyle;rounded=0;orthogonalLoop=1;jettySize=auto;html=1;exitX=0.5;exitY=1;exitDx=0;exitDy=0;entryX=0.5;entryY=0;entryDx=0;entryDy=0;labelBackgroundColor=none;" parent="1" source="25IxbGbye8QSh7L906S8-35" target="25IxbGbye8QSh7L906S8-39" edge="1">
          <mxGeometry relative="1" as="geometry" />
        </mxCell>
        <mxCell id="25IxbGbye8QSh7L906S8-35" value="tok = strtok(line, &quot; \t\r\n&quot;)" style="rounded=0;whiteSpace=wrap;html=1;strokeWidth=2;fontFamily=JetBrainsMono Nerd Font;fontSize=10;labelBackgroundColor=none;" parent="1" vertex="1">
          <mxGeometry x="10.000000000000114" y="160" width="200" height="30" as="geometry" />
        </mxCell>
        <mxCell id="25IxbGbye8QSh7L906S8-36" value="функция strtok возвращает&lt;br&gt;ссылку на первый встреченный разделитель&lt;br&gt;(строка, разделители)" style="strokeWidth=2;html=1;shape=mxgraph.flowchart.annotation_1;align=left;pointerEvents=1;fontFamily=JetBrainsMono Nerd Font;fontSize=10;labelBackgroundColor=none;" parent="1" vertex="1">
          <mxGeometry x="230" y="155" width="10" height="40" as="geometry" />
        </mxCell>
        <mxCell id="25IxbGbye8QSh7L906S8-37" style="edgeStyle=orthogonalEdgeStyle;rounded=0;orthogonalLoop=1;jettySize=auto;html=1;exitX=1;exitY=0.5;exitDx=0;exitDy=0;entryX=0;entryY=0.5;entryDx=0;entryDy=0;entryPerimeter=0;endArrow=none;endFill=0;dashed=1;fontFamily=JetBrainsMono Nerd Font;labelBackgroundColor=none;" parent="1" source="25IxbGbye8QSh7L906S8-35" target="25IxbGbye8QSh7L906S8-36" edge="1">
          <mxGeometry relative="1" as="geometry">
            <mxPoint x="240.0000000000001" y="175" as="sourcePoint" />
          </mxGeometry>
        </mxCell>
        <mxCell id="25IxbGbye8QSh7L906S8-45" style="edgeStyle=orthogonalEdgeStyle;rounded=0;orthogonalLoop=1;jettySize=auto;html=1;exitX=0.5;exitY=1;exitDx=0;exitDy=0;entryX=0.5;entryY=0;entryDx=0;entryDy=0;labelBackgroundColor=none;" parent="1" source="25IxbGbye8QSh7L906S8-39" target="25IxbGbye8QSh7L906S8-42" edge="1">
          <mxGeometry relative="1" as="geometry" />
        </mxCell>
        <mxCell id="25IxbGbye8QSh7L906S8-39" value="&lt;div style=&quot;font-size: 10px;&quot;&gt;A&lt;/div&gt;&lt;div style=&quot;font-size: 10px;&quot;&gt;tok = NULL&lt;/div&gt;" style="shape=loopLimit;whiteSpace=wrap;html=1;size=18;direction=east;strokeWidth=2;fontFamily=JetBrainsMono Nerd Font;fontSize=10;labelBackgroundColor=none;" parent="1" vertex="1">
          <mxGeometry x="10.000000000000114" y="210" width="200" height="39" as="geometry" />
        </mxCell>
        <mxCell id="25IxbGbye8QSh7L906S8-52" style="edgeStyle=orthogonalEdgeStyle;rounded=0;orthogonalLoop=1;jettySize=auto;html=1;exitX=0.5;exitY=0;exitDx=0;exitDy=0;entryX=0.5;entryY=0;entryDx=0;entryDy=0;labelBackgroundColor=none;" parent="1" source="25IxbGbye8QSh7L906S8-40" target="25IxbGbye8QSh7L906S8-50" edge="1">
          <mxGeometry relative="1" as="geometry" />
        </mxCell>
        <mxCell id="25IxbGbye8QSh7L906S8-40" value="&lt;div style=&quot;font-size: 10px;&quot;&gt;&lt;br style=&quot;font-size: 10px;&quot;&gt;&lt;/div&gt;&lt;div style=&quot;font-size: 10px;&quot;&gt;A&lt;/div&gt;" style="shape=loopLimit;whiteSpace=wrap;html=1;size=20;direction=west;strokeWidth=2;fontFamily=JetBrainsMono Nerd Font;fontSize=10;labelBackgroundColor=none;" parent="1" vertex="1">
          <mxGeometry x="10.000000000000114" y="420" width="200" height="41" as="geometry" />
        </mxCell>
        <mxCell id="25IxbGbye8QSh7L906S8-46" style="edgeStyle=orthogonalEdgeStyle;rounded=0;orthogonalLoop=1;jettySize=auto;html=1;exitX=0.5;exitY=1;exitDx=0;exitDy=0;entryX=0.5;entryY=0;entryDx=0;entryDy=0;labelBackgroundColor=none;" parent="1" source="25IxbGbye8QSh7L906S8-42" target="25IxbGbye8QSh7L906S8-43" edge="1">
          <mxGeometry relative="1" as="geometry" />
        </mxCell>
        <mxCell id="25IxbGbye8QSh7L906S8-42" value="edge_labels[num_edges] = tok" style="rounded=0;whiteSpace=wrap;html=1;strokeWidth=2;fontFamily=JetBrainsMono Nerd Font;fontSize=10;labelBackgroundColor=none;" parent="1" vertex="1">
          <mxGeometry x="10.000000000000114" y="270" width="200" height="30" as="geometry" />
        </mxCell>
        <mxCell id="25IxbGbye8QSh7L906S8-47" style="edgeStyle=orthogonalEdgeStyle;rounded=0;orthogonalLoop=1;jettySize=auto;html=1;exitX=0.5;exitY=1;exitDx=0;exitDy=0;entryX=0.5;entryY=0;entryDx=0;entryDy=0;labelBackgroundColor=none;" parent="1" source="25IxbGbye8QSh7L906S8-43" target="25IxbGbye8QSh7L906S8-44" edge="1">
          <mxGeometry relative="1" as="geometry" />
        </mxCell>
        <mxCell id="25IxbGbye8QSh7L906S8-43" value="num_edges = num_edges + 1" style="rounded=0;whiteSpace=wrap;html=1;strokeWidth=2;fontFamily=JetBrainsMono Nerd Font;fontSize=10;labelBackgroundColor=none;" parent="1" vertex="1">
          <mxGeometry x="10.000000000000114" y="320" width="200" height="30" as="geometry" />
        </mxCell>
        <mxCell id="25IxbGbye8QSh7L906S8-48" style="edgeStyle=orthogonalEdgeStyle;rounded=0;orthogonalLoop=1;jettySize=auto;html=1;exitX=0.5;exitY=1;exitDx=0;exitDy=0;entryX=0.5;entryY=1;entryDx=0;entryDy=0;labelBackgroundColor=none;" parent="1" source="25IxbGbye8QSh7L906S8-44" target="25IxbGbye8QSh7L906S8-40" edge="1">
          <mxGeometry relative="1" as="geometry" />
        </mxCell>
        <mxCell id="25IxbGbye8QSh7L906S8-44" value="tok = strtok(NULL, &quot; \t\r\n&quot;" style="rounded=0;whiteSpace=wrap;html=1;strokeWidth=2;fontFamily=JetBrainsMono Nerd Font;fontSize=10;labelBackgroundColor=none;" parent="1" vertex="1">
          <mxGeometry x="10.000000000000114" y="370" width="200" height="30" as="geometry" />
        </mxCell>
        <mxCell id="25IxbGbye8QSh7L906S8-55" style="edgeStyle=orthogonalEdgeStyle;rounded=0;orthogonalLoop=1;jettySize=auto;html=1;exitX=0.5;exitY=1;exitDx=0;exitDy=0;entryX=0.5;entryY=0;entryDx=0;entryDy=0;labelBackgroundColor=none;" parent="1" source="25IxbGbye8QSh7L906S8-49" target="25IxbGbye8QSh7L906S8-54" edge="1">
          <mxGeometry relative="1" as="geometry" />
        </mxCell>
        <mxCell id="25IxbGbye8QSh7L906S8-49" value="Ввод line" style="shape=parallelogram;perimeter=parallelogramPerimeter;whiteSpace=wrap;html=1;fixedSize=1;size=30;container=0;strokeWidth=2;fontFamily=JetBrainsMono Nerd Font;fontSize=10;labelBackgroundColor=none;" parent="1" vertex="1">
          <mxGeometry x="10" y="540" width="200" height="30" as="geometry" />
        </mxCell>
        <mxCell id="25IxbGbye8QSh7L906S8-53" style="edgeStyle=orthogonalEdgeStyle;rounded=0;orthogonalLoop=1;jettySize=auto;html=1;exitX=0.5;exitY=1;exitDx=0;exitDy=0;entryX=0.5;entryY=0;entryDx=0;entryDy=0;labelBackgroundColor=none;" parent="1" source="25IxbGbye8QSh7L906S8-50" target="25IxbGbye8QSh7L906S8-49" edge="1">
          <mxGeometry relative="1" as="geometry" />
        </mxCell>
        <mxCell id="25IxbGbye8QSh7L906S8-50" value="&lt;div style=&quot;font-size: 10px;&quot;&gt;Б&lt;/div&gt;&lt;div style=&quot;font-size: 10px;&quot;&gt;line = EOF&lt;/div&gt;" style="shape=loopLimit;whiteSpace=wrap;html=1;size=18;direction=east;strokeWidth=2;fontFamily=JetBrainsMono Nerd Font;fontSize=10;labelBackgroundColor=none;" parent="1" vertex="1">
          <mxGeometry x="10.000000000000114" y="480" width="200" height="39" as="geometry" />
        </mxCell>
        <mxCell id="25IxbGbye8QSh7L906S8-96" style="edgeStyle=orthogonalEdgeStyle;rounded=0;orthogonalLoop=1;jettySize=auto;html=1;exitX=0.5;exitY=0;exitDx=0;exitDy=0;entryX=0.5;entryY=0;entryDx=0;entryDy=0;labelBackgroundColor=none;" parent="1" source="25IxbGbye8QSh7L906S8-51" target="25IxbGbye8QSh7L906S8-92" edge="1">
          <mxGeometry relative="1" as="geometry" />
        </mxCell>
        <mxCell id="25IxbGbye8QSh7L906S8-51" value="&lt;div style=&quot;font-size: 10px;&quot;&gt;&lt;br style=&quot;font-size: 10px;&quot;&gt;&lt;/div&gt;&lt;div style=&quot;font-size: 10px;&quot;&gt;Б&lt;/div&gt;" style="shape=loopLimit;whiteSpace=wrap;html=1;size=20;direction=west;strokeWidth=2;fontFamily=JetBrainsMono Nerd Font;fontSize=10;labelBackgroundColor=none;" parent="1" vertex="1">
          <mxGeometry x="500.0000000000001" y="60" width="200" height="41" as="geometry" />
        </mxCell>
        <mxCell id="25IxbGbye8QSh7L906S8-57" style="edgeStyle=orthogonalEdgeStyle;rounded=0;orthogonalLoop=1;jettySize=auto;html=1;exitX=0.5;exitY=1;exitDx=0;exitDy=0;entryX=0.5;entryY=0;entryDx=0;entryDy=0;labelBackgroundColor=none;" parent="1" source="25IxbGbye8QSh7L906S8-54" target="25IxbGbye8QSh7L906S8-56" edge="1">
          <mxGeometry relative="1" as="geometry" />
        </mxCell>
        <mxCell id="25IxbGbye8QSh7L906S8-54" value="tok = strtok(line, &quot; \t\r\n&quot;)" style="rounded=0;whiteSpace=wrap;html=1;strokeWidth=2;fontFamily=JetBrainsMono Nerd Font;fontSize=10;labelBackgroundColor=none;" parent="1" vertex="1">
          <mxGeometry x="10.000000000000114" y="590" width="200" height="30" as="geometry" />
        </mxCell>
        <mxCell id="25IxbGbye8QSh7L906S8-63" style="edgeStyle=orthogonalEdgeStyle;rounded=0;orthogonalLoop=1;jettySize=auto;html=1;exitX=0.5;exitY=1;exitDx=0;exitDy=0;entryX=0.5;entryY=0;entryDx=0;entryDy=0;labelBackgroundColor=none;" parent="1" source="25IxbGbye8QSh7L906S8-56" target="25IxbGbye8QSh7L906S8-62" edge="1">
          <mxGeometry relative="1" as="geometry" />
        </mxCell>
        <mxCell id="25IxbGbye8QSh7L906S8-56" value="vid = tok" style="rounded=0;whiteSpace=wrap;html=1;strokeWidth=2;fontFamily=JetBrainsMono Nerd Font;fontSize=10;labelBackgroundColor=none;" parent="1" vertex="1">
          <mxGeometry x="10.000000000000114" y="640" width="200" height="30" as="geometry" />
        </mxCell>
        <mxCell id="25IxbGbye8QSh7L906S8-70" style="edgeStyle=orthogonalEdgeStyle;rounded=0;orthogonalLoop=1;jettySize=auto;html=1;exitX=0.5;exitY=1;exitDx=0;exitDy=0;entryX=0.5;entryY=0;entryDx=0;entryDy=0;labelBackgroundColor=none;" parent="1" source="25IxbGbye8QSh7L906S8-60" target="25IxbGbye8QSh7L906S8-69" edge="1">
          <mxGeometry relative="1" as="geometry" />
        </mxCell>
        <mxCell id="25IxbGbye8QSh7L906S8-60" value="&lt;div style=&quot;font-size: 10px;&quot;&gt;В&lt;/div&gt;&lt;div style=&quot;font-size: 10px;&quot;&gt;j &amp;gt;= num_edges&lt;/div&gt;" style="shape=loopLimit;whiteSpace=wrap;html=1;size=18;direction=east;strokeWidth=2;fontFamily=JetBrainsMono Nerd Font;fontSize=10;labelBackgroundColor=none;" parent="1" vertex="1">
          <mxGeometry x="10.000000000000114" y="740" width="200" height="39" as="geometry" />
        </mxCell>
        <mxCell id="25IxbGbye8QSh7L906S8-88" style="edgeStyle=orthogonalEdgeStyle;rounded=0;orthogonalLoop=1;jettySize=auto;html=1;exitX=0.5;exitY=0;exitDx=0;exitDy=0;entryX=0.5;entryY=0;entryDx=0;entryDy=0;labelBackgroundColor=none;" parent="1" source="25IxbGbye8QSh7L906S8-61" target="25IxbGbye8QSh7L906S8-87" edge="1">
          <mxGeometry relative="1" as="geometry" />
        </mxCell>
        <mxCell id="25IxbGbye8QSh7L906S8-61" value="&lt;div style=&quot;font-size: 10px;&quot;&gt;&lt;br style=&quot;font-size: 10px;&quot;&gt;&lt;/div&gt;&lt;div style=&quot;font-size: 10px;&quot;&gt;В&lt;/div&gt;" style="shape=loopLimit;whiteSpace=wrap;html=1;size=20;direction=west;strokeWidth=2;fontFamily=JetBrainsMono Nerd Font;fontSize=10;labelBackgroundColor=none;" parent="1" vertex="1">
          <mxGeometry x="10.000000000000114" y="1090" width="200" height="41" as="geometry" />
        </mxCell>
        <mxCell id="25IxbGbye8QSh7L906S8-64" style="edgeStyle=orthogonalEdgeStyle;rounded=0;orthogonalLoop=1;jettySize=auto;html=1;exitX=0.5;exitY=1;exitDx=0;exitDy=0;entryX=0.5;entryY=0;entryDx=0;entryDy=0;labelBackgroundColor=none;" parent="1" source="25IxbGbye8QSh7L906S8-62" target="25IxbGbye8QSh7L906S8-60" edge="1">
          <mxGeometry relative="1" as="geometry" />
        </mxCell>
        <mxCell id="25IxbGbye8QSh7L906S8-62" value="j = 0" style="rounded=0;whiteSpace=wrap;html=1;strokeWidth=2;fontFamily=JetBrainsMono Nerd Font;fontSize=10;labelBackgroundColor=none;" parent="1" vertex="1">
          <mxGeometry x="10.000000000000114" y="690" width="200" height="30" as="geometry" />
        </mxCell>
        <mxCell id="25IxbGbye8QSh7L906S8-66" style="edgeStyle=orthogonalEdgeStyle;rounded=0;orthogonalLoop=1;jettySize=auto;html=1;exitX=0.5;exitY=1;exitDx=0;exitDy=0;entryX=0.5;entryY=1;entryDx=0;entryDy=0;labelBackgroundColor=none;" parent="1" source="25IxbGbye8QSh7L906S8-65" target="25IxbGbye8QSh7L906S8-61" edge="1">
          <mxGeometry relative="1" as="geometry" />
        </mxCell>
        <mxCell id="25IxbGbye8QSh7L906S8-65" value="j = j + 1" style="rounded=0;whiteSpace=wrap;html=1;strokeWidth=2;fontFamily=JetBrainsMono Nerd Font;fontSize=10;labelBackgroundColor=none;" parent="1" vertex="1">
          <mxGeometry x="10.000000000000114" y="1040" width="200" height="30" as="geometry" />
        </mxCell>
        <mxCell id="25IxbGbye8QSh7L906S8-67" value="название вершины(номер)" style="strokeWidth=2;html=1;shape=mxgraph.flowchart.annotation_1;align=left;pointerEvents=1;fontFamily=JetBrainsMono Nerd Font;fontSize=10;labelBackgroundColor=none;" parent="1" vertex="1">
          <mxGeometry x="230.0000000000001" y="640" width="10" height="30" as="geometry" />
        </mxCell>
        <mxCell id="25IxbGbye8QSh7L906S8-68" style="edgeStyle=orthogonalEdgeStyle;rounded=0;orthogonalLoop=1;jettySize=auto;html=1;exitX=1;exitY=0.5;exitDx=0;exitDy=0;entryX=0;entryY=0.5;entryDx=0;entryDy=0;entryPerimeter=0;endArrow=none;endFill=0;dashed=1;fontFamily=JetBrainsMono Nerd Font;labelBackgroundColor=none;" parent="1" source="25IxbGbye8QSh7L906S8-56" target="25IxbGbye8QSh7L906S8-67" edge="1">
          <mxGeometry relative="1" as="geometry">
            <mxPoint x="230.0000000000001" y="655" as="sourcePoint" />
          </mxGeometry>
        </mxCell>
        <mxCell id="25IxbGbye8QSh7L906S8-72" style="edgeStyle=orthogonalEdgeStyle;rounded=0;orthogonalLoop=1;jettySize=auto;html=1;exitX=0.5;exitY=1;exitDx=0;exitDy=0;entryX=0.5;entryY=0;entryDx=0;entryDy=0;labelBackgroundColor=none;" parent="1" source="25IxbGbye8QSh7L906S8-69" target="25IxbGbye8QSh7L906S8-71" edge="1">
          <mxGeometry relative="1" as="geometry" />
        </mxCell>
        <mxCell id="25IxbGbye8QSh7L906S8-69" value="tok = strtok(NULL, &quot; \t\r\n&quot;)" style="rounded=0;whiteSpace=wrap;html=1;strokeWidth=2;fontFamily=JetBrainsMono Nerd Font;fontSize=10;labelBackgroundColor=none;" parent="1" vertex="1">
          <mxGeometry x="10.000000000000114" y="800" width="200" height="30" as="geometry" />
        </mxCell>
        <mxCell id="25IxbGbye8QSh7L906S8-74" style="edgeStyle=orthogonalEdgeStyle;rounded=0;orthogonalLoop=1;jettySize=auto;html=1;exitX=0.5;exitY=1;exitDx=0;exitDy=0;entryX=0.5;entryY=0;entryDx=0;entryDy=0;labelBackgroundColor=none;" parent="1" source="25IxbGbye8QSh7L906S8-71" target="25IxbGbye8QSh7L906S8-73" edge="1">
          <mxGeometry relative="1" as="geometry" />
        </mxCell>
        <mxCell id="25IxbGbye8QSh7L906S8-71" value="v = tok" style="rounded=0;whiteSpace=wrap;html=1;strokeWidth=2;fontFamily=JetBrainsMono Nerd Font;fontSize=10;labelBackgroundColor=none;" parent="1" vertex="1">
          <mxGeometry x="10.000000000000114" y="850" width="200" height="30" as="geometry" />
        </mxCell>
        <mxCell id="25IxbGbye8QSh7L906S8-78" style="edgeStyle=orthogonalEdgeStyle;rounded=0;orthogonalLoop=1;jettySize=auto;html=1;exitX=0.5;exitY=1;exitDx=0;exitDy=0;entryX=0.5;entryY=0;entryDx=0;entryDy=0;labelBackgroundColor=none;" parent="1" source="25IxbGbye8QSh7L906S8-73" target="25IxbGbye8QSh7L906S8-75" edge="1">
          <mxGeometry relative="1" as="geometry" />
        </mxCell>
        <mxCell id="25IxbGbye8QSh7L906S8-81" value="1" style="edgeLabel;html=1;align=center;verticalAlign=middle;resizable=0;points=[];labelBackgroundColor=none;" parent="25IxbGbye8QSh7L906S8-78" vertex="1" connectable="0">
          <mxGeometry x="0.2917" y="-1" relative="1" as="geometry">
            <mxPoint x="-9" y="4" as="offset" />
          </mxGeometry>
        </mxCell>
        <mxCell id="25IxbGbye8QSh7L906S8-79" style="edgeStyle=orthogonalEdgeStyle;rounded=0;orthogonalLoop=1;jettySize=auto;html=1;exitX=0.5;exitY=1;exitDx=0;exitDy=0;entryX=0.5;entryY=0;entryDx=0;entryDy=0;labelBackgroundColor=none;" parent="1" source="25IxbGbye8QSh7L906S8-73" target="25IxbGbye8QSh7L906S8-76" edge="1">
          <mxGeometry relative="1" as="geometry">
            <Array as="points">
              <mxPoint x="110" y="970" />
              <mxPoint x="330" y="970" />
            </Array>
          </mxGeometry>
        </mxCell>
        <mxCell id="25IxbGbye8QSh7L906S8-82" value="-1" style="edgeLabel;html=1;align=center;verticalAlign=middle;resizable=0;points=[];labelBackgroundColor=none;" parent="25IxbGbye8QSh7L906S8-79" vertex="1" connectable="0">
          <mxGeometry x="0.8974" y="2" relative="1" as="geometry">
            <mxPoint x="-12" y="3" as="offset" />
          </mxGeometry>
        </mxCell>
        <mxCell id="25IxbGbye8QSh7L906S8-80" style="edgeStyle=orthogonalEdgeStyle;rounded=0;orthogonalLoop=1;jettySize=auto;html=1;exitX=0.5;exitY=1;exitDx=0;exitDy=0;entryX=0.5;entryY=0;entryDx=0;entryDy=0;labelBackgroundColor=none;" parent="1" source="25IxbGbye8QSh7L906S8-73" target="25IxbGbye8QSh7L906S8-77" edge="1">
          <mxGeometry relative="1" as="geometry">
            <Array as="points">
              <mxPoint x="110" y="970" />
              <mxPoint x="550" y="970" />
            </Array>
          </mxGeometry>
        </mxCell>
        <mxCell id="25IxbGbye8QSh7L906S8-83" value="2" style="edgeLabel;html=1;align=center;verticalAlign=middle;resizable=0;points=[];labelBackgroundColor=none;" parent="25IxbGbye8QSh7L906S8-80" vertex="1" connectable="0">
          <mxGeometry x="0.9392" y="1" relative="1" as="geometry">
            <mxPoint x="-11" y="5" as="offset" />
          </mxGeometry>
        </mxCell>
        <mxCell id="25IxbGbye8QSh7L906S8-73" value="v" style="rhombus;whiteSpace=wrap;html=1;strokeWidth=2;fontFamily=JetBrainsMono Nerd Font;fontSize=10;labelBackgroundColor=none;" parent="1" vertex="1">
          <mxGeometry x="10" y="899.9999999999998" width="200" height="60" as="geometry" />
        </mxCell>
        <mxCell id="25IxbGbye8QSh7L906S8-84" style="edgeStyle=orthogonalEdgeStyle;rounded=0;orthogonalLoop=1;jettySize=auto;html=1;exitX=0.5;exitY=1;exitDx=0;exitDy=0;entryX=0.5;entryY=0;entryDx=0;entryDy=0;labelBackgroundColor=none;" parent="1" source="25IxbGbye8QSh7L906S8-75" target="25IxbGbye8QSh7L906S8-65" edge="1">
          <mxGeometry relative="1" as="geometry" />
        </mxCell>
        <mxCell id="25IxbGbye8QSh7L906S8-75" value="start[j] = vid" style="rounded=0;whiteSpace=wrap;html=1;strokeWidth=2;fontFamily=JetBrainsMono Nerd Font;fontSize=10;labelBackgroundColor=none;" parent="1" vertex="1">
          <mxGeometry x="10.000000000000114" y="990.33" width="200" height="30" as="geometry" />
        </mxCell>
        <mxCell id="25IxbGbye8QSh7L906S8-85" style="edgeStyle=orthogonalEdgeStyle;rounded=0;orthogonalLoop=1;jettySize=auto;html=1;exitX=0.5;exitY=1;exitDx=0;exitDy=0;entryX=0.5;entryY=0;entryDx=0;entryDy=0;labelBackgroundColor=none;" parent="1" source="25IxbGbye8QSh7L906S8-76" target="25IxbGbye8QSh7L906S8-65" edge="1">
          <mxGeometry relative="1" as="geometry">
            <Array as="points">
              <mxPoint x="330" y="1030" />
              <mxPoint x="110" y="1030" />
            </Array>
          </mxGeometry>
        </mxCell>
        <mxCell id="25IxbGbye8QSh7L906S8-76" value="end[j] = vid" style="rounded=0;whiteSpace=wrap;html=1;strokeWidth=2;fontFamily=JetBrainsMono Nerd Font;fontSize=10;labelBackgroundColor=none;" parent="1" vertex="1">
          <mxGeometry x="230.0000000000001" y="990.33" width="200" height="30" as="geometry" />
        </mxCell>
        <mxCell id="25IxbGbye8QSh7L906S8-86" style="edgeStyle=orthogonalEdgeStyle;rounded=0;orthogonalLoop=1;jettySize=auto;html=1;exitX=0.5;exitY=1;exitDx=0;exitDy=0;entryX=0.5;entryY=0;entryDx=0;entryDy=0;labelBackgroundColor=none;" parent="1" source="25IxbGbye8QSh7L906S8-77" target="25IxbGbye8QSh7L906S8-65" edge="1">
          <mxGeometry relative="1" as="geometry">
            <Array as="points">
              <mxPoint x="550" y="1030" />
              <mxPoint x="110" y="1030" />
            </Array>
          </mxGeometry>
        </mxCell>
        <mxCell id="25IxbGbye8QSh7L906S8-77" value="start[j] = end[j] = vid" style="rounded=0;whiteSpace=wrap;html=1;strokeWidth=2;fontFamily=JetBrainsMono Nerd Font;fontSize=10;labelBackgroundColor=none;" parent="1" vertex="1">
          <mxGeometry x="450.0000000000001" y="990.33" width="200" height="30" as="geometry" />
        </mxCell>
        <mxCell id="25IxbGbye8QSh7L906S8-87" value="A1" style="ellipse;whiteSpace=wrap;html=1;aspect=fixed;strokeWidth=2;fontSize=10;labelBackgroundColor=none;" parent="1" vertex="1">
          <mxGeometry x="250" y="1120" width="30" height="30" as="geometry" />
        </mxCell>
        <mxCell id="25IxbGbye8QSh7L906S8-91" style="edgeStyle=orthogonalEdgeStyle;rounded=0;orthogonalLoop=1;jettySize=auto;html=1;exitX=0.5;exitY=1;exitDx=0;exitDy=0;entryX=0.5;entryY=1;entryDx=0;entryDy=0;labelBackgroundColor=none;" parent="1" source="25IxbGbye8QSh7L906S8-90" target="25IxbGbye8QSh7L906S8-51" edge="1">
          <mxGeometry relative="1" as="geometry" />
        </mxCell>
        <mxCell id="25IxbGbye8QSh7L906S8-90" value="A1" style="ellipse;whiteSpace=wrap;html=1;aspect=fixed;strokeWidth=2;fontSize=10;labelBackgroundColor=none;" parent="1" vertex="1">
          <mxGeometry x="585" y="10" width="30" height="30" as="geometry" />
        </mxCell>
        <mxCell id="25IxbGbye8QSh7L906S8-95" style="edgeStyle=orthogonalEdgeStyle;rounded=0;orthogonalLoop=1;jettySize=auto;html=1;exitX=0.5;exitY=1;exitDx=0;exitDy=0;entryX=0.5;entryY=0;entryDx=0;entryDy=0;labelBackgroundColor=none;" parent="1" source="25IxbGbye8QSh7L906S8-92" target="25IxbGbye8QSh7L906S8-93" edge="1">
          <mxGeometry relative="1" as="geometry" />
        </mxCell>
        <mxCell id="25IxbGbye8QSh7L906S8-92" value="count = 0, i = 0" style="rounded=0;whiteSpace=wrap;html=1;strokeWidth=2;fontFamily=JetBrainsMono Nerd Font;fontSize=10;labelBackgroundColor=none;" parent="1" vertex="1">
          <mxGeometry x="500.0000000000001" y="120" width="200" height="30" as="geometry" />
        </mxCell>
        <mxCell id="25IxbGbye8QSh7L906S8-101" style="edgeStyle=orthogonalEdgeStyle;rounded=0;orthogonalLoop=1;jettySize=auto;html=1;exitX=0.5;exitY=1;exitDx=0;exitDy=0;entryX=0.5;entryY=0;entryDx=0;entryDy=0;labelBackgroundColor=none;" parent="1" source="25IxbGbye8QSh7L906S8-93" target="25IxbGbye8QSh7L906S8-100" edge="1">
          <mxGeometry relative="1" as="geometry" />
        </mxCell>
        <mxCell id="25IxbGbye8QSh7L906S8-93" value="&lt;div style=&quot;font-size: 10px;&quot;&gt;Подсчет 1&lt;/div&gt;&lt;div style=&quot;font-size: 10px;&quot;&gt;i &amp;gt;= num_edges&lt;/div&gt;" style="shape=loopLimit;whiteSpace=wrap;html=1;size=18;direction=east;strokeWidth=2;fontFamily=JetBrainsMono Nerd Font;fontSize=10;labelBackgroundColor=none;" parent="1" vertex="1">
          <mxGeometry x="500.0000000000001" y="171" width="200" height="39" as="geometry" />
        </mxCell>
        <mxCell id="25IxbGbye8QSh7L906S8-116" style="edgeStyle=orthogonalEdgeStyle;rounded=0;orthogonalLoop=1;jettySize=auto;html=1;exitX=0.5;exitY=0;exitDx=0;exitDy=0;entryX=0.5;entryY=0;entryDx=0;entryDy=0;labelBackgroundColor=none;" parent="1" source="25IxbGbye8QSh7L906S8-94" target="25IxbGbye8QSh7L906S8-115" edge="1">
          <mxGeometry relative="1" as="geometry" />
        </mxCell>
        <mxCell id="25IxbGbye8QSh7L906S8-94" value="&lt;div style=&quot;font-size: 10px;&quot;&gt;&lt;br style=&quot;font-size: 10px;&quot;&gt;&lt;/div&gt;&lt;div style=&quot;font-size: 10px;&quot;&gt;Подсчет 1&lt;/div&gt;" style="shape=loopLimit;whiteSpace=wrap;html=1;size=20;direction=west;strokeWidth=2;fontFamily=JetBrainsMono Nerd Font;fontSize=10;labelBackgroundColor=none;" parent="1" vertex="1">
          <mxGeometry x="500.0000000000001" y="629" width="200" height="41" as="geometry" />
        </mxCell>
        <mxCell id="25IxbGbye8QSh7L906S8-107" style="edgeStyle=orthogonalEdgeStyle;rounded=0;orthogonalLoop=1;jettySize=auto;html=1;exitX=0.5;exitY=1;exitDx=0;exitDy=0;entryX=0.5;entryY=0;entryDx=0;entryDy=0;labelBackgroundColor=none;" parent="1" source="25IxbGbye8QSh7L906S8-97" target="25IxbGbye8QSh7L906S8-106" edge="1">
          <mxGeometry relative="1" as="geometry" />
        </mxCell>
        <mxCell id="25IxbGbye8QSh7L906S8-97" value="&lt;div style=&quot;font-size: 10px;&quot;&gt;Подсчет 2&lt;/div&gt;&lt;div style=&quot;font-size: 10px;&quot;&gt;j &amp;gt;= num_edges&lt;/div&gt;" style="shape=loopLimit;whiteSpace=wrap;html=1;size=18;direction=east;strokeWidth=2;fontFamily=JetBrainsMono Nerd Font;fontSize=10;labelBackgroundColor=none;" parent="1" vertex="1">
          <mxGeometry x="500.0000000000001" y="281" width="200" height="39" as="geometry" />
        </mxCell>
        <mxCell id="25IxbGbye8QSh7L906S8-114" style="edgeStyle=orthogonalEdgeStyle;rounded=0;orthogonalLoop=1;jettySize=auto;html=1;exitX=0.5;exitY=0;exitDx=0;exitDy=0;entryX=0.5;entryY=0;entryDx=0;entryDy=0;labelBackgroundColor=none;" parent="1" source="25IxbGbye8QSh7L906S8-98" target="25IxbGbye8QSh7L906S8-103" edge="1">
          <mxGeometry relative="1" as="geometry" />
        </mxCell>
        <mxCell id="25IxbGbye8QSh7L906S8-98" value="&lt;div style=&quot;font-size: 10px;&quot;&gt;&lt;br style=&quot;font-size: 10px;&quot;&gt;&lt;/div&gt;&lt;div style=&quot;font-size: 10px;&quot;&gt;Подсчет 2&lt;/div&gt;" style="shape=loopLimit;whiteSpace=wrap;html=1;size=20;direction=west;strokeWidth=2;fontFamily=JetBrainsMono Nerd Font;fontSize=10;labelBackgroundColor=none;" parent="1" vertex="1">
          <mxGeometry x="500.0000000000001" y="520" width="200" height="41" as="geometry" />
        </mxCell>
        <mxCell id="25IxbGbye8QSh7L906S8-100" value="j = i + 1" style="rounded=0;whiteSpace=wrap;html=1;strokeWidth=2;fontFamily=JetBrainsMono Nerd Font;fontSize=10;labelBackgroundColor=none;" parent="1" vertex="1">
          <mxGeometry x="500.0000000000001" y="231" width="200" height="30" as="geometry" />
        </mxCell>
        <mxCell id="25IxbGbye8QSh7L906S8-104" style="edgeStyle=orthogonalEdgeStyle;rounded=0;orthogonalLoop=1;jettySize=auto;html=1;exitX=0.5;exitY=1;exitDx=0;exitDy=0;entryX=0.5;entryY=1;entryDx=0;entryDy=0;labelBackgroundColor=none;" parent="1" source="25IxbGbye8QSh7L906S8-102" target="25IxbGbye8QSh7L906S8-98" edge="1">
          <mxGeometry relative="1" as="geometry" />
        </mxCell>
        <mxCell id="25IxbGbye8QSh7L906S8-102" value="j = j + 1" style="rounded=0;whiteSpace=wrap;html=1;strokeWidth=2;fontFamily=JetBrainsMono Nerd Font;fontSize=10;labelBackgroundColor=none;" parent="1" vertex="1">
          <mxGeometry x="500.0000000000001" y="470" width="200" height="30" as="geometry" />
        </mxCell>
        <mxCell id="25IxbGbye8QSh7L906S8-105" style="edgeStyle=orthogonalEdgeStyle;rounded=0;orthogonalLoop=1;jettySize=auto;html=1;exitX=0.5;exitY=1;exitDx=0;exitDy=0;entryX=0.5;entryY=1;entryDx=0;entryDy=0;labelBackgroundColor=none;" parent="1" source="25IxbGbye8QSh7L906S8-103" target="25IxbGbye8QSh7L906S8-94" edge="1">
          <mxGeometry relative="1" as="geometry" />
        </mxCell>
        <mxCell id="25IxbGbye8QSh7L906S8-103" value="i = i + 1" style="rounded=0;whiteSpace=wrap;html=1;strokeWidth=2;fontFamily=JetBrainsMono Nerd Font;fontSize=10;labelBackgroundColor=none;" parent="1" vertex="1">
          <mxGeometry x="500.0000000000001" y="580" width="200" height="30" as="geometry" />
        </mxCell>
        <mxCell id="25IxbGbye8QSh7L906S8-109" style="edgeStyle=orthogonalEdgeStyle;rounded=0;orthogonalLoop=1;jettySize=auto;html=1;exitX=0.5;exitY=1;exitDx=0;exitDy=0;entryX=0.5;entryY=0;entryDx=0;entryDy=0;labelBackgroundColor=none;" parent="1" source="25IxbGbye8QSh7L906S8-106" target="25IxbGbye8QSh7L906S8-108" edge="1">
          <mxGeometry relative="1" as="geometry" />
        </mxCell>
        <mxCell id="25IxbGbye8QSh7L906S8-111" value="1" style="edgeLabel;html=1;align=center;verticalAlign=middle;resizable=0;points=[];labelBackgroundColor=none;" parent="25IxbGbye8QSh7L906S8-109" vertex="1" connectable="0">
          <mxGeometry x="-0.44" y="-1" relative="1" as="geometry">
            <mxPoint x="11" y="4" as="offset" />
          </mxGeometry>
        </mxCell>
        <mxCell id="25IxbGbye8QSh7L906S8-110" style="edgeStyle=orthogonalEdgeStyle;rounded=0;orthogonalLoop=1;jettySize=auto;html=1;exitX=1;exitY=0.5;exitDx=0;exitDy=0;entryX=0.5;entryY=0;entryDx=0;entryDy=0;labelBackgroundColor=none;" parent="1" source="25IxbGbye8QSh7L906S8-106" target="25IxbGbye8QSh7L906S8-102" edge="1">
          <mxGeometry relative="1" as="geometry">
            <Array as="points">
              <mxPoint x="720" y="370" />
              <mxPoint x="720" y="460" />
              <mxPoint x="600" y="460" />
            </Array>
          </mxGeometry>
        </mxCell>
        <mxCell id="25IxbGbye8QSh7L906S8-112" value="0" style="edgeLabel;html=1;align=center;verticalAlign=middle;resizable=0;points=[];labelBackgroundColor=none;" parent="25IxbGbye8QSh7L906S8-110" vertex="1" connectable="0">
          <mxGeometry x="-0.9167" y="1" relative="1" as="geometry">
            <mxPoint y="-9" as="offset" />
          </mxGeometry>
        </mxCell>
        <mxCell id="25IxbGbye8QSh7L906S8-106" value="" style="rhombus;whiteSpace=wrap;html=1;strokeWidth=2;fontFamily=JetBrainsMono Nerd Font;fontSize=10;labelBackgroundColor=none;" parent="1" vertex="1">
          <mxGeometry x="500" y="339.9999999999998" width="200" height="60" as="geometry" />
        </mxCell>
        <mxCell id="25IxbGbye8QSh7L906S8-113" style="edgeStyle=orthogonalEdgeStyle;rounded=0;orthogonalLoop=1;jettySize=auto;html=1;exitX=0.5;exitY=1;exitDx=0;exitDy=0;entryX=0.5;entryY=0;entryDx=0;entryDy=0;labelBackgroundColor=none;" parent="1" source="25IxbGbye8QSh7L906S8-108" target="25IxbGbye8QSh7L906S8-102" edge="1">
          <mxGeometry relative="1" as="geometry" />
        </mxCell>
        <mxCell id="25IxbGbye8QSh7L906S8-108" value="count = count + 1" style="rounded=0;whiteSpace=wrap;html=1;strokeWidth=2;fontFamily=JetBrainsMono Nerd Font;fontSize=10;labelBackgroundColor=none;" parent="1" vertex="1">
          <mxGeometry x="500.0000000000001" y="420" width="200" height="30" as="geometry" />
        </mxCell>
        <mxCell id="25IxbGbye8QSh7L906S8-118" style="edgeStyle=orthogonalEdgeStyle;rounded=0;orthogonalLoop=1;jettySize=auto;html=1;exitX=0.5;exitY=1;exitDx=0;exitDy=0;entryX=0.5;entryY=0;entryDx=0;entryDy=0;labelBackgroundColor=none;" parent="1" source="25IxbGbye8QSh7L906S8-115" target="25IxbGbye8QSh7L906S8-117" edge="1">
          <mxGeometry relative="1" as="geometry" />
        </mxCell>
        <mxCell id="25IxbGbye8QSh7L906S8-119" style="edgeStyle=orthogonalEdgeStyle;rounded=0;orthogonalLoop=1;jettySize=auto;html=1;exitX=1;exitY=0.5;exitDx=0;exitDy=0;entryX=0.5;entryY=0;entryDx=0;entryDy=0;labelBackgroundColor=none;" parent="1" source="25IxbGbye8QSh7L906S8-115" target="25IxbGbye8QSh7L906S8-120" edge="1">
          <mxGeometry relative="1" as="geometry">
            <mxPoint x="720" y="770" as="targetPoint" />
            <Array as="points">
              <mxPoint x="725" y="720" />
            </Array>
          </mxGeometry>
        </mxCell>
        <mxCell id="25IxbGbye8QSh7L906S8-115" value="count != 0" style="rhombus;whiteSpace=wrap;html=1;strokeWidth=2;fontFamily=JetBrainsMono Nerd Font;fontSize=10;labelBackgroundColor=none;" parent="1" vertex="1">
          <mxGeometry x="500" y="689.9999999999998" width="200" height="60" as="geometry" />
        </mxCell>
        <mxCell id="25IxbGbye8QSh7L906S8-117" value="Б1" style="ellipse;whiteSpace=wrap;html=1;aspect=fixed;strokeWidth=2;fontSize=10;labelBackgroundColor=none;" parent="1" vertex="1">
          <mxGeometry x="585" y="770" width="30" height="30" as="geometry" />
        </mxCell>
        <mxCell id="25IxbGbye8QSh7L906S8-120" value="Б2" style="ellipse;whiteSpace=wrap;html=1;aspect=fixed;strokeWidth=2;fontSize=10;labelBackgroundColor=none;" parent="1" vertex="1">
          <mxGeometry x="710" y="770" width="30" height="30" as="geometry" />
        </mxCell>
        <mxCell id="25IxbGbye8QSh7L906S8-125" style="edgeStyle=orthogonalEdgeStyle;rounded=0;orthogonalLoop=1;jettySize=auto;html=1;exitX=0.5;exitY=1;exitDx=0;exitDy=0;entryX=0.5;entryY=0;entryDx=0;entryDy=0;labelBackgroundColor=none;" parent="1" source="25IxbGbye8QSh7L906S8-121" target="25IxbGbye8QSh7L906S8-124" edge="1">
          <mxGeometry relative="1" as="geometry" />
        </mxCell>
        <mxCell id="25IxbGbye8QSh7L906S8-121" value="Б1" style="ellipse;whiteSpace=wrap;html=1;aspect=fixed;strokeWidth=2;fontSize=10;labelBackgroundColor=none;" parent="1" vertex="1">
          <mxGeometry x="925" y="10.5" width="30" height="30" as="geometry" />
        </mxCell>
        <mxCell id="25IxbGbye8QSh7L906S8-133" style="edgeStyle=orthogonalEdgeStyle;rounded=0;orthogonalLoop=1;jettySize=auto;html=1;exitX=0.5;exitY=1;exitDx=0;exitDy=0;entryX=0.5;entryY=0;entryDx=0;entryDy=0;labelBackgroundColor=none;" parent="1" source="25IxbGbye8QSh7L906S8-122" target="25IxbGbye8QSh7L906S8-132" edge="1">
          <mxGeometry relative="1" as="geometry" />
        </mxCell>
        <mxCell id="25IxbGbye8QSh7L906S8-122" value="&lt;div style=&quot;font-size: 10px;&quot;&gt;Вывод 1&lt;/div&gt;&lt;div style=&quot;font-size: 10px;&quot;&gt;i &amp;gt;= num_edges&lt;/div&gt;" style="shape=loopLimit;whiteSpace=wrap;html=1;size=18;direction=east;strokeWidth=2;fontFamily=JetBrainsMono Nerd Font;fontSize=10;labelBackgroundColor=none;" parent="1" vertex="1">
          <mxGeometry x="840.0000000000001" y="111.5" width="200" height="39" as="geometry" />
        </mxCell>
        <mxCell id="25IxbGbye8QSh7L906S8-164" style="edgeStyle=orthogonalEdgeStyle;rounded=0;orthogonalLoop=1;jettySize=auto;html=1;exitX=0.5;exitY=0;exitDx=0;exitDy=0;entryX=0.5;entryY=0;entryDx=0;entryDy=0;labelBackgroundColor=none;" parent="1" source="25IxbGbye8QSh7L906S8-123" target="3" edge="1">
          <mxGeometry relative="1" as="geometry" />
        </mxCell>
        <mxCell id="25IxbGbye8QSh7L906S8-123" value="&lt;div style=&quot;font-size: 10px;&quot;&gt;&lt;br style=&quot;font-size: 10px;&quot;&gt;&lt;/div&gt;&lt;div style=&quot;font-size: 10px;&quot;&gt;Вывод 1&lt;/div&gt;" style="shape=loopLimit;whiteSpace=wrap;html=1;size=20;direction=west;strokeWidth=2;fontFamily=JetBrainsMono Nerd Font;fontSize=10;labelBackgroundColor=none;" parent="1" vertex="1">
          <mxGeometry x="840" y="929.33" width="200" height="41" as="geometry" />
        </mxCell>
        <mxCell id="25IxbGbye8QSh7L906S8-126" style="edgeStyle=orthogonalEdgeStyle;rounded=0;orthogonalLoop=1;jettySize=auto;html=1;exitX=0.5;exitY=1;exitDx=0;exitDy=0;entryX=0.5;entryY=0;entryDx=0;entryDy=0;labelBackgroundColor=none;" parent="1" source="25IxbGbye8QSh7L906S8-124" target="25IxbGbye8QSh7L906S8-122" edge="1">
          <mxGeometry relative="1" as="geometry" />
        </mxCell>
        <mxCell id="25IxbGbye8QSh7L906S8-124" value="i = 0" style="rounded=0;whiteSpace=wrap;html=1;strokeWidth=2;fontFamily=JetBrainsMono Nerd Font;fontSize=10;labelBackgroundColor=none;" parent="1" vertex="1">
          <mxGeometry x="840.0000000000001" y="60.5" width="200" height="30" as="geometry" />
        </mxCell>
        <mxCell id="25IxbGbye8QSh7L906S8-128" style="edgeStyle=orthogonalEdgeStyle;rounded=0;orthogonalLoop=1;jettySize=auto;html=1;exitX=0.5;exitY=1;exitDx=0;exitDy=0;entryX=0.5;entryY=1;entryDx=0;entryDy=0;labelBackgroundColor=none;" parent="1" source="25IxbGbye8QSh7L906S8-127" target="25IxbGbye8QSh7L906S8-123" edge="1">
          <mxGeometry relative="1" as="geometry" />
        </mxCell>
        <mxCell id="25IxbGbye8QSh7L906S8-127" value="i = i + 1" style="rounded=0;whiteSpace=wrap;html=1;strokeWidth=2;fontFamily=JetBrainsMono Nerd Font;fontSize=10;labelBackgroundColor=none;" parent="1" vertex="1">
          <mxGeometry x="840" y="879.33" width="200" height="30" as="geometry" />
        </mxCell>
        <mxCell id="25IxbGbye8QSh7L906S8-137" style="edgeStyle=orthogonalEdgeStyle;rounded=0;orthogonalLoop=1;jettySize=auto;html=1;exitX=0.5;exitY=1;exitDx=0;exitDy=0;entryX=0.5;entryY=0;entryDx=0;entryDy=0;labelBackgroundColor=none;" parent="1" source="25IxbGbye8QSh7L906S8-129" target="2jND8RXCtn94TsfjyHqZ-11" edge="1">
          <mxGeometry relative="1" as="geometry">
            <mxPoint x="940" y="279.9999999999998" as="targetPoint" />
          </mxGeometry>
        </mxCell>
        <mxCell id="25IxbGbye8QSh7L906S8-129" value="&lt;div style=&quot;font-size: 10px;&quot;&gt;Вывод 2&lt;/div&gt;&lt;div style=&quot;font-size: 10px;&quot;&gt;i &amp;gt;= num_edges&lt;/div&gt;" style="shape=loopLimit;whiteSpace=wrap;html=1;size=18;direction=east;strokeWidth=2;fontFamily=JetBrainsMono Nerd Font;fontSize=10;labelBackgroundColor=none;" parent="1" vertex="1">
          <mxGeometry x="840.0000000000001" y="222" width="200" height="39" as="geometry" />
        </mxCell>
        <mxCell id="25IxbGbye8QSh7L906S8-162" style="edgeStyle=orthogonalEdgeStyle;rounded=0;orthogonalLoop=1;jettySize=auto;html=1;exitX=0.5;exitY=1;exitDx=0;exitDy=0;entryX=0.5;entryY=1;entryDx=0;entryDy=0;labelBackgroundColor=none;" parent="1" source="25IxbGbye8QSh7L906S8-130" target="25IxbGbye8QSh7L906S8-131" edge="1">
          <mxGeometry relative="1" as="geometry" />
        </mxCell>
        <mxCell id="25IxbGbye8QSh7L906S8-130" value="i = i + 1" style="rounded=0;whiteSpace=wrap;html=1;strokeWidth=2;fontFamily=JetBrainsMono Nerd Font;fontSize=10;labelBackgroundColor=none;" parent="1" vertex="1">
          <mxGeometry x="840" y="769.33" width="200" height="30" as="geometry" />
        </mxCell>
        <mxCell id="25IxbGbye8QSh7L906S8-163" style="edgeStyle=orthogonalEdgeStyle;rounded=0;orthogonalLoop=1;jettySize=auto;html=1;exitX=0.5;exitY=0;exitDx=0;exitDy=0;entryX=0.5;entryY=0;entryDx=0;entryDy=0;labelBackgroundColor=none;" parent="1" source="25IxbGbye8QSh7L906S8-131" target="25IxbGbye8QSh7L906S8-127" edge="1">
          <mxGeometry relative="1" as="geometry" />
        </mxCell>
        <mxCell id="25IxbGbye8QSh7L906S8-131" value="&lt;div style=&quot;font-size: 10px;&quot;&gt;&lt;br style=&quot;font-size: 10px;&quot;&gt;&lt;/div&gt;&lt;div style=&quot;font-size: 10px;&quot;&gt;Вывод 2&lt;/div&gt;" style="shape=loopLimit;whiteSpace=wrap;html=1;size=20;direction=west;strokeWidth=2;fontFamily=JetBrainsMono Nerd Font;fontSize=10;labelBackgroundColor=none;" parent="1" vertex="1">
          <mxGeometry x="840" y="819.33" width="200" height="41" as="geometry" />
        </mxCell>
        <mxCell id="25IxbGbye8QSh7L906S8-136" style="edgeStyle=orthogonalEdgeStyle;rounded=0;orthogonalLoop=1;jettySize=auto;html=1;exitX=0.5;exitY=1;exitDx=0;exitDy=0;entryX=0.5;entryY=0;entryDx=0;entryDy=0;labelBackgroundColor=none;" parent="1" source="25IxbGbye8QSh7L906S8-132" target="25IxbGbye8QSh7L906S8-129" edge="1">
          <mxGeometry relative="1" as="geometry" />
        </mxCell>
        <mxCell id="25IxbGbye8QSh7L906S8-132" value="j = i + 1" style="rounded=0;whiteSpace=wrap;html=1;strokeWidth=2;fontFamily=JetBrainsMono Nerd Font;fontSize=10;labelBackgroundColor=none;" parent="1" vertex="1">
          <mxGeometry x="840.0000000000001" y="169.5" width="200" height="30" as="geometry" />
        </mxCell>
        <mxCell id="25IxbGbye8QSh7L906S8-138" style="edgeStyle=orthogonalEdgeStyle;rounded=0;orthogonalLoop=1;jettySize=auto;html=1;exitX=0.5;exitY=1;exitDx=0;exitDy=0;entryX=0.5;entryY=0;entryDx=0;entryDy=0;labelBackgroundColor=none;" parent="1" source="2jND8RXCtn94TsfjyHqZ-11" target="25IxbGbye8QSh7L906S8-135" edge="1">
          <mxGeometry relative="1" as="geometry">
            <mxPoint x="940" y="339.9999999999998" as="sourcePoint" />
          </mxGeometry>
        </mxCell>
        <mxCell id="25IxbGbye8QSh7L906S8-139" value="1" style="edgeLabel;html=1;align=center;verticalAlign=middle;resizable=0;points=[];labelBackgroundColor=none;" parent="25IxbGbye8QSh7L906S8-138" vertex="1" connectable="0">
          <mxGeometry x="-0.5048" y="1" relative="1" as="geometry">
            <mxPoint x="-11" y="6" as="offset" />
          </mxGeometry>
        </mxCell>
        <mxCell id="25IxbGbye8QSh7L906S8-143" style="edgeStyle=orthogonalEdgeStyle;rounded=0;orthogonalLoop=1;jettySize=auto;html=1;exitX=0.5;exitY=1;exitDx=0;exitDy=0;entryX=0.5;entryY=0;entryDx=0;entryDy=0;labelBackgroundColor=none;" parent="1" source="25IxbGbye8QSh7L906S8-135" target="25IxbGbye8QSh7L906S8-140" edge="1">
          <mxGeometry relative="1" as="geometry" />
        </mxCell>
        <mxCell id="25IxbGbye8QSh7L906S8-135" value="u = start[i], v = end[i]" style="rounded=0;whiteSpace=wrap;html=1;strokeWidth=2;fontFamily=JetBrainsMono Nerd Font;fontSize=10;labelBackgroundColor=none;" parent="1" vertex="1">
          <mxGeometry x="840.0000000000001" y="360" width="200" height="30" as="geometry" />
        </mxCell>
        <mxCell id="25IxbGbye8QSh7L906S8-145" style="edgeStyle=orthogonalEdgeStyle;rounded=0;orthogonalLoop=1;jettySize=auto;html=1;exitX=0.5;exitY=1;exitDx=0;exitDy=0;entryX=0.5;entryY=0;entryDx=0;entryDy=0;labelBackgroundColor=none;" parent="1" source="25IxbGbye8QSh7L906S8-140" target="25IxbGbye8QSh7L906S8-144" edge="1">
          <mxGeometry relative="1" as="geometry" />
        </mxCell>
        <mxCell id="25IxbGbye8QSh7L906S8-140" value="a = u &amp;lt; v ? u : v" style="rounded=0;whiteSpace=wrap;html=1;strokeWidth=2;fontFamily=JetBrainsMono Nerd Font;fontSize=10;labelBackgroundColor=none;" parent="1" vertex="1">
          <mxGeometry x="840.0000000000001" y="410" width="200" height="30" as="geometry" />
        </mxCell>
        <mxCell id="25IxbGbye8QSh7L906S8-141" value="(логическое выр) ? знач. если истина &lt;br&gt;: знач. иначе" style="strokeWidth=2;html=1;shape=mxgraph.flowchart.annotation_1;align=left;pointerEvents=1;fontFamily=JetBrainsMono Nerd Font;fontSize=10;labelBackgroundColor=none;" parent="1" vertex="1">
          <mxGeometry x="1060" y="410" width="10" height="30" as="geometry" />
        </mxCell>
        <mxCell id="25IxbGbye8QSh7L906S8-142" style="edgeStyle=orthogonalEdgeStyle;rounded=0;orthogonalLoop=1;jettySize=auto;html=1;exitX=1;exitY=0.5;exitDx=0;exitDy=0;entryX=0;entryY=0.5;entryDx=0;entryDy=0;entryPerimeter=0;endArrow=none;endFill=0;dashed=1;fontFamily=JetBrainsMono Nerd Font;labelBackgroundColor=none;" parent="1" source="25IxbGbye8QSh7L906S8-140" target="25IxbGbye8QSh7L906S8-141" edge="1">
          <mxGeometry relative="1" as="geometry">
            <mxPoint x="1060" y="425" as="sourcePoint" />
          </mxGeometry>
        </mxCell>
        <mxCell id="25IxbGbye8QSh7L906S8-152" style="edgeStyle=orthogonalEdgeStyle;rounded=0;orthogonalLoop=1;jettySize=auto;html=1;exitX=0.5;exitY=1;exitDx=0;exitDy=0;entryX=0.5;entryY=0;entryDx=0;entryDy=0;labelBackgroundColor=none;" parent="1" source="25IxbGbye8QSh7L906S8-144" target="25IxbGbye8QSh7L906S8-146" edge="1">
          <mxGeometry relative="1" as="geometry" />
        </mxCell>
        <mxCell id="25IxbGbye8QSh7L906S8-144" value="b = u &amp;lt; v ? v : u" style="rounded=0;whiteSpace=wrap;html=1;strokeWidth=2;fontFamily=JetBrainsMono Nerd Font;fontSize=10;labelBackgroundColor=none;" parent="1" vertex="1">
          <mxGeometry x="840.0000000000001" y="461" width="200" height="30" as="geometry" />
        </mxCell>
        <mxCell id="25IxbGbye8QSh7L906S8-149" style="edgeStyle=orthogonalEdgeStyle;rounded=0;orthogonalLoop=1;jettySize=auto;html=1;exitX=0.5;exitY=1;exitDx=0;exitDy=0;entryX=0.5;entryY=0;entryDx=0;entryDy=0;labelBackgroundColor=none;" parent="1" source="25IxbGbye8QSh7L906S8-146" target="25IxbGbye8QSh7L906S8-147" edge="1">
          <mxGeometry relative="1" as="geometry" />
        </mxCell>
        <mxCell id="25IxbGbye8QSh7L906S8-151" value="1" style="edgeLabel;html=1;align=center;verticalAlign=middle;resizable=0;points=[];labelBackgroundColor=none;" parent="25IxbGbye8QSh7L906S8-149" vertex="1" connectable="0">
          <mxGeometry x="-0.2207" y="2" relative="1" as="geometry">
            <mxPoint x="-12" y="2" as="offset" />
          </mxGeometry>
        </mxCell>
        <mxCell id="25IxbGbye8QSh7L906S8-156" style="edgeStyle=orthogonalEdgeStyle;rounded=0;orthogonalLoop=1;jettySize=auto;html=1;exitX=1;exitY=0.5;exitDx=0;exitDy=0;entryX=0.5;entryY=0;entryDx=0;entryDy=0;labelBackgroundColor=none;" parent="1" source="25IxbGbye8QSh7L906S8-146" target="25IxbGbye8QSh7L906S8-154" edge="1">
          <mxGeometry relative="1" as="geometry" />
        </mxCell>
        <mxCell id="25IxbGbye8QSh7L906S8-157" value="0" style="edgeLabel;html=1;align=center;verticalAlign=middle;resizable=0;points=[];labelBackgroundColor=none;" parent="25IxbGbye8QSh7L906S8-156" vertex="1" connectable="0">
          <mxGeometry x="-0.7606" y="1" relative="1" as="geometry">
            <mxPoint x="-11" y="-9" as="offset" />
          </mxGeometry>
        </mxCell>
        <mxCell id="25IxbGbye8QSh7L906S8-146" value="u = a" style="rhombus;whiteSpace=wrap;html=1;strokeWidth=2;fontFamily=JetBrainsMono Nerd Font;fontSize=10;labelBackgroundColor=none;" parent="1" vertex="1">
          <mxGeometry x="840" y="509.9999999999998" width="200" height="60" as="geometry" />
        </mxCell>
        <mxCell id="25IxbGbye8QSh7L906S8-150" style="edgeStyle=orthogonalEdgeStyle;rounded=0;orthogonalLoop=1;jettySize=auto;html=1;exitX=0.5;exitY=1;exitDx=0;exitDy=0;entryX=0.5;entryY=0;entryDx=0;entryDy=0;labelBackgroundColor=none;" parent="1" source="25IxbGbye8QSh7L906S8-147" target="25IxbGbye8QSh7L906S8-148" edge="1">
          <mxGeometry relative="1" as="geometry" />
        </mxCell>
        <mxCell id="25IxbGbye8QSh7L906S8-147" value="lab_ab = edge_labels[i]" style="rounded=0;whiteSpace=wrap;html=1;strokeWidth=2;fontFamily=JetBrainsMono Nerd Font;fontSize=10;labelBackgroundColor=none;" parent="1" vertex="1">
          <mxGeometry x="840.0000000000001" y="590" width="200" height="30" as="geometry" />
        </mxCell>
        <mxCell id="25IxbGbye8QSh7L906S8-159" style="edgeStyle=orthogonalEdgeStyle;rounded=0;orthogonalLoop=1;jettySize=auto;html=1;exitX=0.5;exitY=1;exitDx=0;exitDy=0;entryX=0.5;entryY=0;entryDx=0;entryDy=0;labelBackgroundColor=none;" parent="1" source="25IxbGbye8QSh7L906S8-148" target="25IxbGbye8QSh7L906S8-158" edge="1">
          <mxGeometry relative="1" as="geometry" />
        </mxCell>
        <mxCell id="25IxbGbye8QSh7L906S8-148" value="lab_ba = edge_labels[j]" style="rounded=0;whiteSpace=wrap;html=1;strokeWidth=2;fontFamily=JetBrainsMono Nerd Font;fontSize=10;labelBackgroundColor=none;" parent="1" vertex="1">
          <mxGeometry x="840.0000000000001" y="640" width="200" height="30" as="geometry" />
        </mxCell>
        <mxCell id="25IxbGbye8QSh7L906S8-153" style="edgeStyle=orthogonalEdgeStyle;rounded=0;orthogonalLoop=1;jettySize=auto;html=1;exitX=0.5;exitY=1;exitDx=0;exitDy=0;entryX=0.5;entryY=0;entryDx=0;entryDy=0;labelBackgroundColor=none;" parent="1" source="25IxbGbye8QSh7L906S8-154" target="25IxbGbye8QSh7L906S8-155" edge="1">
          <mxGeometry relative="1" as="geometry" />
        </mxCell>
        <mxCell id="25IxbGbye8QSh7L906S8-154" value="lab_ab = edge_labels[j]" style="rounded=0;whiteSpace=wrap;html=1;strokeWidth=2;fontFamily=JetBrainsMono Nerd Font;fontSize=10;labelBackgroundColor=none;" parent="1" vertex="1">
          <mxGeometry x="1060" y="590" width="200" height="30" as="geometry" />
        </mxCell>
        <mxCell id="25IxbGbye8QSh7L906S8-160" style="edgeStyle=orthogonalEdgeStyle;rounded=0;orthogonalLoop=1;jettySize=auto;html=1;exitX=0.5;exitY=1;exitDx=0;exitDy=0;entryX=0.5;entryY=0;entryDx=0;entryDy=0;labelBackgroundColor=none;" parent="1" source="25IxbGbye8QSh7L906S8-155" target="25IxbGbye8QSh7L906S8-158" edge="1">
          <mxGeometry relative="1" as="geometry" />
        </mxCell>
        <mxCell id="25IxbGbye8QSh7L906S8-155" value="lab_ba = edge_labels[i]" style="rounded=0;whiteSpace=wrap;html=1;strokeWidth=2;fontFamily=JetBrainsMono Nerd Font;fontSize=10;labelBackgroundColor=none;" parent="1" vertex="1">
          <mxGeometry x="1060" y="640" width="200" height="30" as="geometry" />
        </mxCell>
        <mxCell id="25IxbGbye8QSh7L906S8-161" style="edgeStyle=orthogonalEdgeStyle;rounded=0;orthogonalLoop=1;jettySize=auto;html=1;exitX=0.5;exitY=1;exitDx=0;exitDy=0;entryX=0.5;entryY=0;entryDx=0;entryDy=0;labelBackgroundColor=none;" parent="1" source="25IxbGbye8QSh7L906S8-158" target="25IxbGbye8QSh7L906S8-130" edge="1">
          <mxGeometry relative="1" as="geometry" />
        </mxCell>
        <mxCell id="25IxbGbye8QSh7L906S8-158" value="Вывод a, b - дуги lab_ab &lt;br&gt;(от a к b)&lt;br&gt;и lab_ba (от b к a)" style="shape=parallelogram;perimeter=parallelogramPerimeter;whiteSpace=wrap;html=1;fixedSize=1;size=30;container=0;strokeWidth=2;fontFamily=JetBrainsMono Nerd Font;fontSize=10;labelBackgroundColor=none;" parent="1" vertex="1">
          <mxGeometry x="840" y="710" width="200" height="40" as="geometry" />
        </mxCell>
        <mxCell id="2jND8RXCtn94TsfjyHqZ-3" value="&lt;div&gt;&lt;span style=&quot;text-wrap-mode: wrap;&quot;&gt;start[i] = end[j] и&amp;nbsp;&lt;/span&gt;&lt;span style=&quot;text-wrap-mode: wrap; color: light-dark(rgb(0, 0, 0), rgb(255, 255, 255));&quot;&gt;end[i] = start[j] и&amp;nbsp;&lt;/span&gt;&lt;span style=&quot;color: light-dark(rgb(0, 0, 0), rgb(255, 255, 255)); text-wrap-mode: wrap;&quot;&gt;start[i] != end[i]&lt;/span&gt;&lt;/div&gt;" style="strokeWidth=2;html=1;shape=mxgraph.flowchart.annotation_1;align=right;pointerEvents=1;fontFamily=JetBrainsMono Nerd Font;fontSize=10;labelBackgroundColor=none;direction=west;horizontal=1;" vertex="1" parent="1">
          <mxGeometry x="460" y="310" width="10" height="80" as="geometry" />
        </mxCell>
        <mxCell id="2jND8RXCtn94TsfjyHqZ-4" style="rounded=0;orthogonalLoop=1;jettySize=auto;html=1;exitX=0;exitY=0;exitDx=0;exitDy=0;endArrow=none;endFill=0;dashed=1;fontFamily=JetBrainsMono Nerd Font;labelBackgroundColor=none;entryX=0;entryY=0.5;entryDx=0;entryDy=0;entryPerimeter=0;" edge="1" target="2jND8RXCtn94TsfjyHqZ-3" parent="1" source="25IxbGbye8QSh7L906S8-106">
          <mxGeometry relative="1" as="geometry">
            <mxPoint x="740.0000000000001" y="301" as="sourcePoint" />
            <mxPoint x="300" y="345" as="targetPoint" />
          </mxGeometry>
        </mxCell>
        <mxCell id="2jND8RXCtn94TsfjyHqZ-11" value="" style="rhombus;whiteSpace=wrap;html=1;strokeWidth=2;fontFamily=JetBrainsMono Nerd Font;fontSize=10;labelBackgroundColor=none;" vertex="1" parent="1">
          <mxGeometry x="840" y="279.4999999999998" width="200" height="60" as="geometry" />
        </mxCell>
        <mxCell id="2jND8RXCtn94TsfjyHqZ-12" style="rounded=0;orthogonalLoop=1;jettySize=auto;html=1;exitX=1;exitY=0;exitDx=0;exitDy=0;endArrow=none;endFill=0;dashed=1;fontFamily=JetBrainsMono Nerd Font;labelBackgroundColor=none;entryX=0;entryY=0.5;entryDx=0;entryDy=0;entryPerimeter=0;" edge="1" source="2jND8RXCtn94TsfjyHqZ-11" target="2jND8RXCtn94TsfjyHqZ-13" parent="1">
          <mxGeometry relative="1" as="geometry">
            <mxPoint x="1080" y="240.5" as="sourcePoint" />
            <mxPoint x="640" y="284.5" as="targetPoint" />
          </mxGeometry>
        </mxCell>
        <mxCell id="2jND8RXCtn94TsfjyHqZ-13" value="&lt;div&gt;&lt;span style=&quot;text-wrap-mode: wrap;&quot;&gt;start[i] = end[j] и&amp;nbsp;&lt;/span&gt;&lt;span style=&quot;text-wrap-mode: wrap; color: light-dark(rgb(0, 0, 0), rgb(255, 255, 255));&quot;&gt;end[i] = start[j] и&amp;nbsp;&lt;/span&gt;&lt;span style=&quot;color: light-dark(rgb(0, 0, 0), rgb(255, 255, 255)); text-wrap-mode: wrap;&quot;&gt;start[i] != end[i]&lt;/span&gt;&lt;/div&gt;" style="strokeWidth=2;html=1;shape=mxgraph.flowchart.annotation_1;align=left;pointerEvents=1;fontFamily=JetBrainsMono Nerd Font;fontSize=10;labelBackgroundColor=none;direction=east;horizontal=1;" vertex="1" parent="1">
          <mxGeometry x="1080" y="230.5" width="10" height="80" as="geometry" />
        </mxCell>
      </root>
    </mxGraphModel>
  </diagram>
</mxfile>
